<?xml version="1.0" standalone="no"?>
<!DOCTYPE svg PUBLIC "-//W3C//DTD SVG 20010904//EN"
 "http://www.w3.org/TR/2001/REC-SVG-20010904/DTD/svg10.dtd">
<svg version="1.0" xmlns="http://www.w3.org/2000/svg"
 width="1000.000000pt" height="1000.000000pt" viewBox="0 0 1000.000000 1000.000000"
 preserveAspectRatio="xMidYMid meet">
<g transform="translate(0.000000,1000.000000) scale(0.100000,-0.100000)"
fill="#000000" stroke="none">
<path d="M394 9818 c-111 -12 -187 -60 -198 -125 -41 -240 -66 -963 -76 -2208
-8 -950 -7 -1570 5 -3385 5 -860 21 -1977 30 -2120 7 -117 24 -652 25 -785 2
-155 42 -495 60 -495 4 0 13 -27 18 -60 11 -59 46 -125 61 -116 13 8 71 -33
83 -59 15 -33 66 -48 157 -47 43 1 78 -3 81 -9 4 -5 31 -11 61 -13 31 -1 60
-5 66 -9 6 -4 74 -9 150 -11 76 -2 154 -7 173 -11 19 -3 134 -8 255 -10 121
-2 301 -5 400 -8 99 -2 320 -7 490 -10 171 -3 569 -10 885 -16 316 -5 609 -13
650 -17 41 -3 163 -8 270 -9 107 -1 296 -6 420 -9 852 -25 1331 -38 1495 -41
105 -2 287 -6 405 -9 118 -4 307 -8 420 -11 286 -7 1381 -8 1950 -1 471 6 625
11 708 22 23 4 61 8 85 10 80 5 122 15 132 28 6 8 19 15 28 17 20 4 53 58 61
99 1 3 5 10 9 17 41 64 55 698 53 2323 -2 996 -5 1302 -19 1583 -10 192 -15
352 -13 355 2 4 0 65 -5 137 -5 71 -14 301 -19 510 -6 209 -15 407 -20 440 -5
33 -14 168 -20 300 -6 132 -15 256 -21 275 -5 19 -9 95 -9 168 0 72 -4 132 -9
132 -16 0 -20 51 -31 350 -6 162 -15 327 -21 365 -12 83 -26 208 -39 360 -5
61 -14 135 -19 165 -5 30 -10 78 -10 107 -1 30 -7 57 -15 66 -9 8 -19 54 -25
112 -13 109 -39 227 -54 236 -5 4 -8 21 -5 38 2 17 1 31 -4 31 -4 0 -8 11 -8
25 0 14 -4 25 -9 25 -5 0 -11 13 -14 29 -3 16 -13 36 -22 44 -8 9 -15 28 -15
44 0 17 -8 34 -20 43 -13 9 -20 26 -20 47 0 25 -4 33 -18 33 -24 0 -62 33 -62
54 0 9 -8 16 -20 16 -11 0 -20 7 -20 15 0 8 -9 15 -20 15 -15 0 -20 7 -20 25
0 18 -5 25 -20 25 -13 0 -20 7 -20 19 0 11 -12 23 -30 31 -16 7 -30 16 -30 20
0 4 -27 13 -60 20 -33 7 -60 18 -60 25 0 11 -124 45 -162 45 -10 0 -18 5 -18
10 0 6 -9 10 -19 10 -11 0 -22 6 -24 13 -4 10 -6 10 -6 0 -1 -19 -21 -16 -41
7 -14 16 -35 21 -113 26 -54 4 -97 11 -97 15 0 5 10 10 23 10 12 1 -16 7 -63
14 -166 24 -240 39 -240 47 0 4 -12 8 -27 8 -51 0 -213 24 -213 32 0 4 -22 8
-49 8 -58 0 -151 20 -151 32 0 4 -21 8 -47 8 -27 0 -97 7 -158 15 -60 8 -137
15 -171 15 -37 0 -68 6 -80 15 -12 9 -42 14 -82 15 -63 0 -142 18 -142 32 0 5
-32 8 -71 8 -38 0 -91 7 -117 15 -52 16 -259 43 -397 51 -49 3 -91 9 -93 14
-2 6 -22 10 -45 10 -23 0 -61 7 -84 15 -23 8 -79 17 -125 20 -46 4 -101 8
-123 10 -22 2 -77 7 -122 11 -46 4 -83 10 -83 13 0 3 -30 7 -68 9 -76 3 -110
7 -202 23 -36 7 -82 11 -103 10 -21 -1 -71 5 -111 13 -40 9 -119 18 -177 21
-95 4 -140 8 -269 20 -25 3 -148 11 -275 20 -126 8 -300 19 -385 25 -385 25
-503 30 -945 45 -258 9 -477 18 -485 20 -20 6 -224 13 -575 20 -159 4 -311 8
-336 10 -174 13 -342 17 -854 18 -319 1 -607 -1 -641 -5z m2846 -3140 c-1
-275 -218 -524 -482 -554 l-58 -7 0 64 c0 193 130 393 320 494 71 37 149 62
198 64 21 1 22 -3 22 -61z m155 -598 c98 -30 180 -79 248 -146 85 -85 85 -81
13 -144 -151 -132 -216 -267 -216 -444 0 -208 94 -380 265 -488 87 -55 85 -52
64 -107 -29 -78 -99 -222 -114 -238 -8 -8 -15 -19 -15 -24 0 -5 -7 -9 -15 -9
-8 0 -12 -6 -9 -14 3 -7 -2 -20 -10 -29 -9 -9 -16 -20 -16 -24 0 -5 -16 -28
-35 -50 -19 -23 -35 -45 -35 -50 0 -11 -53 -63 -63 -63 -4 0 -7 8 -7 19 0 10
-7 24 -15 31 -8 7 -15 23 -15 36 0 12 -4 26 -10 29 -6 4 -10 -5 -10 -19 0 -14
-4 -26 -10 -26 -5 0 -10 -9 -10 -20 0 -15 7 -20 24 -20 33 0 43 -18 20 -35
-11 -7 -16 -17 -12 -21 4 -4 16 -1 25 7 15 11 15 10 -1 -9 -11 -12 -25 -22
-33 -22 -7 0 -13 -7 -13 -15 0 -10 -11 -15 -35 -15 -26 0 -33 3 -29 15 7 17
24 20 24 5 0 -6 8 -5 20 2 41 26 12 78 -43 78 -31 0 -67 -27 -67 -50 0 -18 19
-10 25 10 9 30 65 28 65 -2 0 -21 0 -21 -21 -2 -22 19 -22 19 -17 -8 5 -24 2
-28 -18 -28 -13 0 -33 9 -44 20 -22 22 -26 40 -10 40 6 0 10 7 10 15 0 18 -1
18 -36 0 -24 -12 -25 -15 -9 -15 19 -1 19 -1 1 -11 -14 -9 -20 -8 -26 1 -5 8
-18 10 -36 6 -39 -10 -39 -10 -36 28 4 38 -13 57 -21 26 -9 -34 -37 -14 -30
22 5 25 3 29 -13 27 -10 -2 -26 1 -34 6 -13 8 -13 7 -1 -8 7 -9 11 -24 7 -32
-3 -8 -1 -15 4 -15 18 0 10 -25 -11 -38 -19 -12 -20 -11 -14 7 8 25 -16 29
-34 7 -14 -17 5 -56 26 -56 7 0 13 -4 13 -10 0 -5 -9 -10 -21 -10 -11 0 -17 5
-14 10 4 6 -15 30 -42 55 -26 25 -43 45 -37 45 5 0 14 -4 19 -9 12 -12 76 0
76 14 0 6 -19 13 -43 17 -35 7 -45 5 -55 -9 -18 -23 -16 -53 2 -53 8 0 15 -4
15 -10 0 -5 -8 -10 -18 -10 -10 0 -23 -5 -29 -11 -16 -16 -33 -2 -33 27 0 14
-7 27 -15 30 -11 5 -13 10 -5 19 15 18 -5 29 -22 12 -22 -23 -68 -30 -74 -12
-4 8 -13 15 -21 15 -8 0 -11 5 -7 11 4 8 0 9 -15 4 -15 -4 -21 -2 -21 8 0 22
-26 28 -81 21 -49 -7 -49 -6 -49 22 0 26 -1 27 -16 12 -12 -12 -13 -20 -6 -35
8 -15 7 -22 -9 -31 -12 -8 -19 -23 -19 -44 l0 -31 -30 32 c-37 38 -48 40 -25
5 9 -14 14 -29 10 -32 -3 -4 -10 0 -14 7 -5 8 -26 13 -51 13 -23 -1 -41 1 -39
3 2 2 8 3 12 4 4 0 22 11 38 25 17 15 34 26 37 26 11 0 34 41 27 48 -3 4 -10
0 -15 -8 -5 -8 -13 -11 -17 -6 -4 5 -2 11 5 13 6 3 12 11 12 19 0 17 -5 17
-30 2 -24 -15 -37 -4 -20 17 15 18 0 21 -18 3 -6 -6 -15 -8 -19 -4 -4 4 -2 11
5 15 7 4 10 15 6 24 -8 21 -24 22 -24 2 0 -8 -4 -15 -10 -15 -6 0 -6 -10 0
-27 10 -28 10 -28 -6 -5 -20 27 -38 29 -29 2 4 -11 2 -20 -4 -20 -6 0 -11 5
-11 10 0 6 -7 10 -15 10 -8 0 -15 -4 -15 -10 0 -5 5 -10 10 -10 6 0 10 -7 10
-15 0 -8 -7 -15 -16 -15 -9 0 -13 -5 -10 -12 3 -7 9 -21 12 -31 4 -11 13 -16
23 -12 18 5 51 -39 38 -51 -10 -10 -29 7 -23 22 4 10 -2 14 -20 14 -15 0 -27
7 -30 18 -11 34 -21 47 -42 50 -21 3 -21 5 -7 31 8 16 11 31 8 35 -4 3 -1 6 5
6 12 0 16 -12 13 -42 -1 -9 3 -19 9 -23 6 -3 10 3 10 15 0 12 5 30 10 41 8 15
7 19 -5 19 -10 0 -15 10 -15 31 0 17 -6 37 -14 44 -12 12 -16 11 -31 -5 -10
-11 -22 -18 -27 -17 -6 1 -13 -4 -15 -10 -3 -7 2 -13 11 -13 9 0 16 5 16 10 0
6 11 10 25 10 14 0 25 -4 25 -10 0 -5 -12 -10 -26 -10 -21 0 -24 -4 -19 -20
13 -41 -5 -81 -43 -98 l-37 -16 30 -6 c29 -6 29 -6 7 -14 -17 -6 -27 -3 -37
10 -17 24 -12 32 30 40 43 8 55 44 24 75 -24 24 -25 24 -43 -27 -11 -28 -15
-33 -15 -16 -1 15 -7 22 -20 22 -19 0 -36 46 -20 55 4 3 3 19 -3 35 -13 38
-27 30 -23 -12 2 -18 4 -33 5 -33 1 0 3 -10 4 -22 2 -14 -3 -23 -11 -23 -7 0
-13 9 -13 20 0 13 -9 22 -25 26 -14 3 -25 10 -25 16 0 5 -4 6 -10 3 -22 -14
-7 -54 52 -134 49 -67 63 -80 70 -67 5 9 14 16 20 16 6 0 3 -9 -7 -20 -17 -19
-16 -21 31 -71 66 -69 167 -119 244 -119 45 -1 51 -3 36 -12 -27 -15 -106 -3
-169 26 -87 42 -228 199 -335 374 -88 145 -177 380 -209 555 -25 131 -24 396
1 492 84 320 318 532 607 552 101 7 145 -2 311 -64 160 -59 160 -59 390 27
146 54 296 61 433 20z m4460 0 c310 -78 490 -298 455 -554 -21 -149 -112 -269
-255 -337 -63 -30 -76 -39 -60 -44 259 -84 398 -254 396 -485 -2 -266 -177
-461 -486 -541 -81 -22 -110 -24 -295 -23 -238 1 -300 13 -459 90 -166 81
-273 212 -308 377 -32 153 12 310 119 423 61 65 127 108 205 135 32 11 65 22
73 25 9 4 -14 19 -60 41 -194 93 -303 297 -261 492 47 220 262 384 553 421
107 13 289 4 383 -20z m-2719 -18 c6 -4 36 -77 66 -162 71 -195 222 -615 282
-782 25 -70 46 -134 46 -141 0 -7 4 -17 10 -23 5 -5 23 -48 39 -94 40 -117
103 -295 146 -415 20 -55 49 -140 65 -190 17 -49 34 -98 40 -107 10 -17 -2
-18 -187 -18 l-198 0 -84 240 -83 240 -343 0 c-189 0 -349 2 -357 5 -13 5 -19
-8 -58 -130 -26 -84 -87 -252 -97 -267 -9 -15 -13 -35 -15 -65 l0 -23 -196 0
c-152 0 -193 3 -184 12 7 7 12 18 12 26 0 12 153 455 215 622 25 66 154 426
240 665 25 72 54 153 65 180 10 28 48 133 85 235 37 101 69 188 71 192 6 10
405 10 420 0z m1439 -964 l0 -968 -167 -1 c-93 -1 -174 -2 -180 -3 -7 -1 -14
6 -14 14 -1 8 -2 360 -3 783 -1 480 -5 767 -11 767 -8 0 -455 -294 -487 -320
-7 -5 -15 -10 -18 -10 -3 0 -5 80 -5 179 0 161 2 179 18 184 9 4 53 32 97 63
44 32 154 109 244 171 l164 113 181 -2 181 -3 0 -967z m-3942 -878 c-5 -20 15
-28 31 -13 4 4 22 6 41 5 18 -2 35 1 38 5 9 15 126 -7 222 -42 133 -48 125
-47 125 -25 0 10 5 22 10 25 8 5 7 12 -2 23 -7 10 -8 14 -4 10 5 -4 15 -3 22
3 8 6 14 7 18 0 4 -6 14 -7 23 -4 11 4 14 3 9 -5 -4 -7 -14 -12 -21 -12 -8 0
-17 -11 -21 -25 -3 -14 -10 -25 -15 -25 -5 0 -9 -4 -9 -10 0 -14 43 -12 59 3
11 10 13 10 7 0 -5 -10 3 -13 29 -13 40 0 64 17 57 40 -5 13 -3 13 11 1 16
-13 16 -15 0 -27 -21 -16 -10 -18 18 -4 11 6 25 8 31 4 21 -13 -54 -32 -129
-33 -72 -1 -87 3 -263 72 -45 17 -77 21 -179 22 -94 1 -126 4 -129 14 -3 10
12 30 25 31 0 0 -1 -9 -4 -20z m3392 -720 c43 -11 98 -31 122 -46 255 -149
298 -597 81 -835 -47 -52 -138 -107 -205 -124 -73 -19 -213 -19 -286 0 -181
47 -293 173 -333 375 -30 150 -3 324 67 435 110 176 328 253 554 195z m-1818
-14 c76 -24 145 -83 179 -153 26 -53 29 -68 29 -163 0 -91 -3 -112 -24 -154
-32 -66 -87 -118 -163 -158 -62 -32 -65 -33 -220 -36 l-158 -4 0 -106 c0 -94
-2 -104 -14 -86 -12 15 -17 17 -27 7 -20 -20 -46 -15 -67 12 -11 14 -25 25
-31 25 -17 0 -13 17 5 24 9 4 14 9 10 13 -3 3 -15 -2 -26 -12 -11 -10 -23 -15
-28 -11 -8 9 -16 790 -8 812 9 24 466 15 543 -10z m878 -1 c145 -40 223 -157
213 -319 -6 -86 -38 -156 -97 -209 -23 -20 -44 -37 -49 -37 -4 0 -13 -4 -21
-9 -10 -7 -3 -27 35 -97 111 -206 131 -254 104 -254 -5 0 -10 9 -10 20 0 26
-17 26 -25 0 -8 -24 -38 -23 -45 2 -4 13 -9 15 -20 8 -13 -8 -13 -11 -1 -19
11 -7 10 -11 -7 -20 -11 -6 -28 -11 -36 -11 -9 0 -16 -6 -16 -14 0 -11 23 -14
107 -15 59 -1 112 -6 117 -11 7 -7 -30 -10 -105 -10 l-116 0 -98 181 c-53 99
-102 182 -109 184 -6 2 -50 5 -99 7 l-87 3 -1 -135 c-1 -74 -4 -123 -6 -107
-4 27 -22 38 -24 15 -1 -7 -3 -20 -4 -28 -6 -55 -41 -65 -82 -23 -16 15 -29
21 -31 14 -2 -6 -8 -8 -13 -5 -6 3 -5 11 2 20 15 19 4 30 -15 15 -12 -10 -14
48 -15 428 l-2 440 43 4 c94 8 464 -5 513 -18z"/>
<path d="M7542 5809 c-103 -18 -203 -91 -238 -175 -22 -52 -17 -131 10 -189
30 -63 66 -97 140 -131 193 -88 441 9 478 189 20 96 -16 186 -100 248 -73 54
-185 76 -290 58z"/>
<path d="M7555 4983 c-149 -20 -275 -104 -315 -211 -26 -67 -25 -107 1 -178
29 -76 85 -135 167 -176 65 -32 70 -33 197 -33 l131 0 76 38 c301 148 225 507
-118 557 -70 10 -85 10 -139 3z"/>
<path d="M4917 5690 c-46 -123 -257 -773 -253 -777 6 -6 517 -6 522 0 3 3
-239 728 -260 782 -2 6 -6 3 -9 -5z"/>
<path d="M5765 3326 c-58 -21 -127 -100 -151 -172 -28 -85 -25 -238 5 -316 32
-83 91 -141 170 -167 77 -25 122 -26 189 -5 69 22 112 61 147 130 29 57 30 64
30 194 0 117 -3 141 -22 181 -28 61 -77 115 -127 141 -53 28 -183 35 -241 14z"/>
<path d="M3859 3339 c-1 -2 -3 -81 -5 -175 l-3 -171 103 -6 c148 -8 199 7 250
77 17 22 21 42 20 92 -1 56 -5 69 -30 101 -50 61 -92 76 -221 81 -62 3 -113 3
-114 1z"/>
<path d="M4730 3337 c-3 -3 -5 -74 -5 -159 l0 -153 90 -3 c129 -5 215 12 251
49 39 41 46 132 15 183 -40 64 -76 78 -219 83 -70 3 -129 3 -132 0z"/>
<path d="M2 2815 c0 -1887 3 -2782 9 -2765 12 29 11 4925 0 5315 -4 132 -8
-1015 -9 -2550z"/>
<path d="M55 1570 c0 -426 1 -601 2 -387 2 213 2 561 0 775 -1 213 -2 38 -2
-388z"/>
</g>
</svg>
